<?xml version="1.0" standalone="no"?>
<!DOCTYPE svg PUBLIC "-//W3C//DTD SVG 20010904//EN"
 "http://www.w3.org/TR/2001/REC-SVG-20010904/DTD/svg10.dtd">
<svg version="1.0" xmlns="http://www.w3.org/2000/svg"
 width="300.000000pt" height="300.000000pt" viewBox="0 0 300.000000 300.000000"
 preserveAspectRatio="xMidYMid meet">
<metadata>
Created by potrace 1.11, written by Peter Selinger 2001-2013
</metadata>
<g transform="translate(0.000000,300.000000) scale(0.100000,-0.100000)"
fill="#000000" stroke="none">
<path d="M1320 2990 c-123 -18 -148 -23 -230 -47 -93 -27 -259 -94 -300 -120
-14 -10 -39 -25 -57 -34 -112 -58 -318 -239 -414 -364 -164 -213 -263 -447
-304 -714 -15 -98 -13 -364 4 -451 6 -30 13 -66 15 -80 10 -52 15 -69 45 -159
127 -379 412 -701 773 -874 83 -40 262 -103 318 -112 19 -3 73 -12 119 -19 94
-15 329 -19 406 -6 206 34 305 65 471 145 420 205 720 601 810 1070 24 123 25
416 1 535 -24 123 -22 118 -56 219 -174 520 -624 904 -1171 1001 -80 14 -355
20 -430 10z"/>
</g>
</svg>
